<svg width="495" height="346" xmlns="http://www.w3.org/2000/svg" xmlns:xlink="http://www.w3.org/1999/xlink" overflow="hidden"><defs><clipPath id="clip0"><rect x="385" y="85" width="495" height="346"/></clipPath></defs><g clip-path="url(#clip0)" transform="translate(-385 -85)"><path d="M388 125.862C388 105.504 404.504 89 424.862 89L839.138 89C859.496 89 876 105.504 876 125.862L876 390.138C876 410.496 859.496 427 839.138 427L424.862 427C404.504 427 388 410.496 388 390.138Z" stroke="#000000" stroke-width="6" stroke-miterlimit="8" fill="none" fill-rule="evenodd"/><text fill="#FF0000" font-family="Arial,Arial_MSFontService,sans-serif" font-weight="700" font-size="40" transform="translate(479.47 144)">Global Memory<tspan fill="#000000" font-weight="400" font-size="27" x="67.4565" y="51">►</tspan><tspan fill="#000000" font-weight="400" font-size="33" x="93.7898" y="51">num</tspan><tspan fill="#000000" font-weight="400" font-size="33" x="167.956" y="51">= 3</tspan><tspan fill="#000000" font-weight="400" font-size="27" x="3.40292" y="101">►</tspan><tspan fill="#000000" font-weight="400" font-size="33" x="29.7363" y="101">addTwo</tspan><tspan fill="#000000" font-weight="400" font-size="33" x="155.563" y="101">=      </tspan><tspan fill="#000000" font-weight="400" font-size="33" x="231.063" y="101">ƒ</tspan></text><path d="M698.5 219.167C698.5 214.933 701.933 211.5 706.167 211.5L736.833 211.5C741.068 211.5 744.5 214.933 744.5 219.167L744.5 253.833C744.5 258.067 741.068 261.5 736.833 261.5L706.167 261.5C701.933 261.5 698.5 258.067 698.5 253.833Z" stroke="#000000" stroke-width="3" stroke-miterlimit="8" fill="none" fill-rule="evenodd"/><path d="M0 0 24.7468 0.000104987" stroke="#000000" stroke-width="4" stroke-miterlimit="8" fill="none" fill-rule="evenodd" transform="matrix(-1 0 0 1 697.747 236)"/><path d="M744 234 766.982 234 766.982 238 744 238ZM764.982 230 776.982 236 764.982 242Z"/></g></svg>